# Blender 3.3.1
# www.blender.org
mtllib road.mtl
o Cube
v 156.518127 0.095193 -16.146393
v 156.518127 -0.095193 -16.146393
v 156.518127 0.095193 16.146393
v 156.518127 -0.095193 16.146393
v -156.518127 0.095193 -16.146393
v -156.518127 -0.095193 -16.146393
v -156.518127 0.095193 16.146393
v -156.518127 -0.095193 16.146393
vn -0.0000 1.0000 -0.0000
vn -0.0000 -0.0000 1.0000
vn -1.0000 -0.0000 -0.0000
vn -0.0000 -1.0000 -0.0000
vn 1.0000 -0.0000 -0.0000
vn -0.0000 -0.0000 -1.0000
vt 1.016289 -0.652311
vt 0.625000 0.500000
vt 0.375000 0.500000
vt -0.015218 -0.659752
vt 0.625000 0.750000
vt 0.375000 0.750000
vt 1.012954 1.649319
vt 0.625000 0.250000
vt 0.125000 0.500000
vt 0.375000 0.250000
vt -0.018553 1.641878
vt 0.625000 1.000000
vt 0.625000 0.000000
vt 0.375000 1.000000
vt 0.375000 0.000000
vt 0.125000 0.750000
s 0
usemtl Material
f 1/1/1 5/7/1 7/11/1 3/4/1
f 4/6/2 3/5/2 7/12/2 8/14/2
f 8/15/3 7/13/3 5/8/3 6/10/3
f 6/9/4 2/3/4 4/6/4 8/16/4
f 2/3/5 1/2/5 3/5/5 4/6/5
f 6/10/6 5/8/6 1/2/6 2/3/6
