# Blender v3.3.1 OBJ File: ''
# www.blender.org
mtllib strada.mtl
o Cube
v 156.518127 0.095193 -16.146393
v 156.518127 -0.095193 -16.146393
v 156.518127 0.095193 16.146393
v 156.518127 -0.095193 16.146393
v -156.518127 0.095193 -16.146393
v -156.518127 -0.095193 -16.146393
v -156.518127 0.095193 16.146393
v -156.518127 -0.095193 16.146393
vt 1.016289 -0.652311
vt 1.012954 1.649319
vt -0.018553 1.641878
vt -0.015218 -0.659752
vt 0.375000 0.750000
vt 0.625000 0.750000
vt 0.625000 1.000000
vt 0.375000 1.000000
vt 0.375000 0.000000
vt 0.625000 0.000000
vt 0.625000 0.250000
vt 0.375000 0.250000
vt 0.125000 0.500000
vt 0.375000 0.500000
vt 0.125000 0.750000
vt 0.625000 0.500000
vn 0.0000 1.0000 0.0000
vn 0.0000 0.0000 1.0000
vn -1.0000 0.0000 0.0000
vn 0.0000 -1.0000 0.0000
vn 1.0000 0.0000 0.0000
vn 0.0000 0.0000 -1.0000
usemtl Material
s off
f 1/1/1 5/2/1 7/3/1 3/4/1
f 4/5/2 3/6/2 7/7/2 8/8/2
f 8/9/3 7/10/3 5/11/3 6/12/3
f 6/13/4 2/14/4 4/5/4 8/15/4
f 2/14/5 1/16/5 3/6/5 4/5/5
f 6/12/6 5/11/6 1/16/6 2/14/6
